<svg width="21" height="20" viewBox="0 0 21 20" fill="none" xmlns="http://www.w3.org/2000/svg">
<path d="M13.1097 14.3593C12.006 14.3593 11.123 15.2423 11.123 16.3461C11.123 17.4498 12.006 18.3328 13.1097 18.3328C14.2135 18.3328 15.0965 17.4498 15.0965 16.3461C15.0965 15.2699 14.1859 14.3593 13.1097 14.3593ZM13.1097 17.1187C12.6958 17.1187 12.3647 16.7876 12.3647 16.3737C12.3647 15.9598 12.6958 15.6286 13.1097 15.6286C13.5236 15.6286 13.8548 15.9598 13.8548 16.3737C13.8548 16.76 13.496 17.1187 13.1097 17.1187Z" fill="white"/>
<path d="M7.86689 14.3593C6.76314 14.3593 5.88014 15.2423 5.88014 16.3461C5.88014 17.4498 6.76314 18.3328 7.86689 18.3328C8.97065 18.3328 9.85365 17.4498 9.85365 16.3461C9.85365 15.2699 8.94305 14.3593 7.86689 14.3593ZM7.86689 17.1187C7.45299 17.1187 7.12186 16.7876 7.12186 16.3737C7.12186 15.9598 7.45299 15.6286 7.86689 15.6286C8.2808 15.6286 8.61193 15.9598 8.61193 16.3737C8.61193 16.76 8.2808 17.1187 7.86689 17.1187Z" fill="white"/>
<path d="M17.442 1.66616H19.0872C19.4183 1.66616 19.6667 1.9145 19.6667 2.27322C19.6667 2.63194 19.3631 2.90788 19.032 2.90788H17.3868C17.3316 2.90788 17.2764 2.93548 17.2764 2.99066L16.1175 11.2412C15.9795 12.2622 15.0965 13.0348 14.0755 13.0348H6.45962C6.04572 13.0348 5.687 12.7589 5.57662 12.3726L3.8658 7.21252V7.15733C3.78302 6.88139 3.8658 6.57786 4.03137 6.35711C4.22452 6.13636 4.50046 5.99839 4.7764 5.99839H5.71247C6.05536 5.99839 6.33333 6.27636 6.33333 6.61925C6.33333 6.96214 6.05536 7.24011 5.71247 7.24011H5.2179L6.70797 11.7655H14.1031C14.517 11.7655 14.8757 11.462 14.9309 11.0481L15.4828 7.24011H15.2875C14.9446 7.24011 14.6667 6.96214 14.6667 6.61925C14.6667 6.27636 14.9446 5.99839 15.2875 5.99839H15.676L16.1175 2.8251C16.2002 2.16285 16.7797 1.66616 17.442 1.66616Z" fill="white"/>
<path d="M9.88269 4.43671C9.88269 4.0958 10.1591 3.81943 10.5 3.81943C10.8409 3.81943 11.1173 4.0958 11.1173 4.43671V8.89659C11.1173 9.23751 10.8409 9.51387 10.5 9.51387C10.1591 9.51387 9.88269 9.23751 9.88269 8.89659V4.43671Z" fill="white"/>
<path d="M8.27004 7.28394C7.92912 7.28394 7.65276 7.00757 7.65276 6.66665C7.65276 6.32574 7.92912 6.04937 8.27004 6.04937H12.7299C13.0708 6.04937 13.3472 6.32574 13.3472 6.66665C13.3472 7.00757 13.0708 7.28394 12.7299 7.28394H8.27004Z" fill="white"/>
<path fill-rule="evenodd" clip-rule="evenodd" d="M9.88269 4.43671C9.88269 4.0958 10.1591 3.81943 10.5 3.81943C10.8409 3.81943 11.1173 4.0958 11.1173 4.43671L11.1173 6.04939L12.7299 6.04937C13.0708 6.04937 13.3472 6.32574 13.3472 6.66665C13.3472 7.00757 13.0708 7.28394 12.7299 7.28394L11.1173 7.28395L11.1173 8.89659C11.1173 9.23751 10.8409 9.51387 10.5 9.51387C10.1591 9.51387 9.88269 9.23751 9.88269 8.89659L9.88271 7.28395L8.27004 7.28394C7.92912 7.28394 7.65276 7.00757 7.65276 6.66665C7.65276 6.32574 7.92912 6.04937 8.27004 6.04937L9.88271 6.04939L9.88269 4.43671ZM9.81327 5.97994V4.43673C9.81327 4.05746 10.1207 3.75 10.5 3.75C10.8793 3.75 11.1867 4.05746 11.1867 4.43673V5.97994H12.7299C13.1092 5.97994 13.4167 6.2874 13.4167 6.66667C13.4167 7.04594 13.1092 7.3534 12.7299 7.3534H11.1867V8.89661C11.1867 9.27588 10.8793 9.58334 10.5 9.58334C10.1207 9.58334 9.81327 9.27588 9.81327 8.89661V7.3534H8.27006C7.89079 7.3534 7.58333 7.04594 7.58333 6.66667C7.58333 6.2874 7.89079 5.97994 8.27006 5.97994H9.81327Z" fill="white"/>
</svg>
