<svg width="20" height="20" viewBox="0 0 20 20" fill="none" xmlns="http://www.w3.org/2000/svg">
<path d="M10.004 13.0545C8.11433 13.0545 6.58049 11.5207 6.58049 9.63102C6.58049 7.7414 8.11433 6.20756 10.004 6.20756C11.8936 6.20756 13.4274 7.7414 13.4274 9.63102C13.4274 11.5207 11.8936 13.0545 10.004 13.0545ZM10.004 7.39352C8.77056 7.39352 7.76645 8.39763 7.76645 9.63102C7.76645 10.8644 8.77056 11.8685 10.004 11.8685C11.2374 11.8685 12.2415 10.8644 12.2415 9.63102C12.2415 8.39763 11.2374 7.39352 10.004 7.39352Z" fill="white"/>
<path d="M10.004 16.7626C7.03116 16.7626 4.22439 15.0232 2.29523 12.003C1.45715 10.6984 1.45715 8.57161 2.29523 7.25915C4.23229 4.23891 7.03906 2.4995 10.004 2.4995C12.9689 2.4995 15.7756 4.23891 17.7048 7.25915C18.5429 8.5637 18.5429 10.6905 17.7048 12.003C15.7756 15.0232 12.9689 16.7626 10.004 16.7626ZM10.004 3.68546C7.45019 3.68546 5.00712 5.2193 3.29934 7.89957C2.70636 8.82462 2.70636 10.4375 3.29934 11.3626C5.00712 14.0428 7.45019 15.5767 10.004 15.5767C12.5577 15.5767 15.0008 14.0428 16.7086 11.3626C17.3016 10.4375 17.3016 8.82462 16.7086 7.89957C15.0008 5.2193 12.5577 3.68546 10.004 3.68546Z" fill="white"/>
</svg>
